<?xml version="1.0" standalone="no"?>
<!DOCTYPE svg PUBLIC "-//W3C//DTD SVG 20010904//EN"
 "http://www.w3.org/TR/2001/REC-SVG-20010904/DTD/svg10.dtd">
<svg version="1.0" xmlns="http://www.w3.org/2000/svg"
 width="1980.000000pt" height="880.000000pt" viewBox="0 0 3980.000000 1750.000000"
 preserveAspectRatio="xMidYMid meet">
<g transform="translate(0.000000,1880.000000) scale(0.100000,-0.100000)"
fill="#FFFFFF" stroke="white" fill-opacity="20" stroke-opacity="5">
<path d="M13750 18449 c-670 -61 -1237 -570 -1375 -1234 -19 -92 -38 -295 -33
-352 l4 -38 21 48 c36 76 61 59 43 -29 -9 -43 -9 -58 1 -70 10 -12 8 -19 -10
-38 -31 -33 -38 -113 -16 -196 121 -470 411 -829 840 -1043 147 -73 362 -132
525 -145 l85 -7 0 -945 0 -945 -85 -7 c-113 -9 -222 -32 -350 -75 -519 -175
-913 -620 -1025 -1158 -20 -99 -30 -207 -21 -232 7 -16 9 -15 22 10 26 48 54
25 34 -28 -7 -19 -8 -31 0 -39 17 -17 11 -45 -14 -62 -51 -33 -56 -108 -20
-281 110 -535 506 -981 1024 -1156 128 -43 237 -66 350 -75 l85 -7 0 -945 0
-945 -85 -7 c-113 -9 -222 -32 -350 -75 -521 -176 -923 -632 -1025 -1164 -9
-46 -18 -93 -20 -103 -2 -10 12 -60 30 -110 19 -50 35 -95 35 -99 0 -5 -16
-29 -36 -53 -36 -44 -37 -46 -31 -112 17 -201 98 -441 215 -637 246 -413 713
-706 1182 -743 l85 -7 0 -945 0 -945 -85 -7 c-163 -13 -378 -72 -525 -145
-429 -214 -720 -575 -840 -1042 -22 -87 -21 -118 10 -249 19 -81 24 -117 16
-125 -15 -15 -38 7 -46 44 -12 56 -26 42 -23 -23 3 -61 4 -63 38 -79 46 -22
47 -45 1 -41 l-34 2 6 -62 c24 -261 138 -544 311 -773 356 -470 970 -700 1551
-580 671 139 1173 705 1235 1390 13 146 16 135 -25 122 -19 -6 -38 -7 -42 -4
-3 4 6 62 22 130 31 137 32 161 10 249 -120 466 -411 828 -840 1041 -147 73
-362 132 -525 145 l-85 7 0 945 0 945 85 7 c469 37 936 330 1182 743 117 196
198 436 215 637 6 66 5 68 -31 112 -20 24 -36 48 -36 53 0 4 16 48 34 96 l35
88 -15 82 c-98 564 -496 1028 -1034 1210 -128 43 -237 66 -350 75 l-85 7 0
945 0 945 85 7 c113 9 222 32 350 75 518 175 914 621 1024 1155 22 105 21 117
-16 230 l-32 98 38 39 39 40 -6 73 c-16 203 -96 444 -215 643 -246 413 -713
706 -1182 743 l-85 7 0 945 0 945 85 7 c113 9 222 32 350 75 457 154 819 516
973 973 63 189 66 212 34 364 -15 72 -27 137 -27 144 0 17 30 15 52 -5 10 -9
21 -14 24 -10 9 8 -13 233 -31 322 -112 538 -506 983 -1025 1158 -220 74 -420
97 -650 76z m331 -120 c468 -60 884 -351 1097 -766 325 -633 151 -1389 -419
-1817 -506 -381 -1212 -381 -1718 0 -369 277 -581 698 -581 1154 0 713 524
1320 1230 1425 108 16 283 18 391 4z m0 -5000 c468 -60 884 -351 1097 -766
325 -633 151 -1389 -419 -1817 -506 -381 -1212 -381 -1718 0 -369 277 -581
698 -581 1154 0 713 524 1320 1230 1425 108 16 283 18 391 4z m0 -5000 c468
-60 884 -351 1097 -766 325 -633 151 -1389 -419 -1817 -506 -381 -1212 -381
-1718 0 -369 277 -581 698 -581 1154 0 713 524 1320 1230 1425 108 16 283 18
391 4z m0 -5000 c468 -60 884 -351 1097 -766 325 -633 151 -1389 -419 -1817
-506 -381 -1212 -381 -1718 0 -369 277 -581 698 -581 1154 0 713 524 1320
1230 1425 108 16 283 18 391 4z"/>
<path d="M7750 16449 c-116 -10 -225 -34 -350 -76 -585 -197 -996 -722 -1050
-1343 l-10 -105 -1442 -1442 -1443 -1443 -8 47 c-60 379 -198 662 -445 910
-170 172 -373 299 -602 376 -567 191 -1184 46 -1602 -376 -369 -373 -528 -903
-423 -1412 112 -538 506 -983 1025 -1158 332 -112 668 -112 1000 0 518 175
914 621 1024 1155 20 96 20 124 1 179 -14 39 166 -138 1437 -1408 l1453 -1453
-1453 -1453 c-1271 -1270 -1451 -1447 -1437 -1408 19 55 19 83 -1 179 -110
534 -506 980 -1024 1155 -567 191 -1184 46 -1602 -376 -369 -373 -528 -903
-423 -1412 112 -538 506 -983 1025 -1158 565 -190 1173 -49 1597 371 247 244
389 534 450 915 l8 47 1443 -1443 1442 -1442 10 -105 c54 -621 465 -1146 1050
-1343 565 -190 1173 -49 1597 371 247 244 417 594 448 918 3 32 8 78 10 101 4
42 4 42 -36 55 -47 14 -47 3 -8 185 27 129 24 159 -38 343 -154 457 -516 819
-973 973 -332 112 -668 112 -1000 0 -518 -175 -914 -621 -1024 -1155 -22 -105
-21 -119 15 -226 21 -64 28 -97 21 -104 -18 -18 -30 0 -57 85 l-27 82 -1422
1423 -1421 1422 1430 1430 1430 1430 8 -47 c49 -309 141 -533 311 -758 356
-470 970 -700 1551 -580 538 112 983 506 1158 1025 38 113 64 225 74 321 7 68
-16 144 -47 154 -28 9 -25 92 5 125 26 29 45 81 40 107 -2 10 -11 56 -20 102
-102 532 -504 988 -1025 1164 -567 191 -1184 46 -1602 -376 -247 -248 -385
-531 -445 -910 l-8 -47 -1430 1430 -1430 1430 1421 1422 1422 1423 27 82 c27
85 39 103 57 85 7 -7 0 -40 -21 -104 -36 -107 -37 -121 -15 -226 110 -534 506
-980 1024 -1155 565 -190 1173 -49 1597 371 204 201 343 448 418 741 22 86 21
118 -9 243 -14 59 -26 115 -26 123 0 22 30 18 57 -7 l23 -21 -1 44 c-1 24 -4
54 -7 66 l-7 22 -52 -30 -53 -31 0 -72 c0 -352 -152 -715 -409 -980 -503 -518
-1315 -582 -1890 -150 -369 277 -581 698 -581 1154 0 456 212 877 581 1154
563 424 1353 372 1863 -123 229 -222 377 -512 422 -830 7 -51 15 -95 17 -98 3
-2 28 10 57 28 58 36 57 23 23 189 -106 528 -506 979 -1023 1153 -220 74 -420
97 -650 76z m-5669 -3120 c468 -60 884 -351 1097 -766 325 -633 151 -1389
-419 -1817 -506 -381 -1212 -381 -1718 0 -369 277 -581 698 -581 1154 0 713
524 1320 1230 1425 108 16 283 18 391 4z m6000 -3000 c468 -60 884 -351 1097
-766 325 -633 151 -1389 -419 -1817 -506 -381 -1212 -381 -1718 0 -369 277
-581 698 -581 1154 0 713 524 1320 1230 1425 108 16 283 18 391 4z m-6000
-3000 c468 -60 884 -351 1097 -766 325 -633 151 -1389 -419 -1817 -506 -381
-1212 -381 -1718 0 -369 277 -581 698 -581 1154 0 713 524 1320 1230 1425 108
16 283 18 391 4z m6000 -3000 c468 -60 884 -351 1097 -766 325 -633 151 -1389
-419 -1817 -506 -381 -1212 -381 -1718 0 -369 277 -581 698 -581 1154 0 713
524 1320 1230 1425 108 16 283 18 391 4z"/>
<path d="M19750 16449 c-602 -55 -1129 -473 -1323 -1049 -43 -128 -66 -236
-76 -353 l-7 -89 38 -21 c37 -21 49 -49 28 -62 -8 -5 -7 -11 0 -20 9 -11 5
-42 -15 -130 -31 -131 -30 -137 33 -325 151 -455 515 -819 972 -973 128 -43
237 -66 350 -75 l85 -7 0 -1445 0 -1445 -85 -7 c-113 -9 -222 -32 -350 -75
-521 -176 -923 -632 -1025 -1164 -9 -46 -18 -92 -20 -103 -2 -10 12 -61 32
-113 l35 -95 -37 -82 -36 -82 15 -89 c88 -505 398 -917 861 -1148 147 -73 362
-132 525 -145 l85 -7 0 -1445 0 -1445 -85 -7 c-113 -9 -222 -32 -350 -75 -457
-154 -819 -516 -973 -973 -63 -189 -66 -212 -34 -364 15 -72 27 -136 27 -142
0 -6 -18 -16 -40 -23 -39 -12 -39 -12 -35 -54 2 -23 7 -69 10 -101 9 -93 34
-201 72 -316 154 -457 516 -819 973 -973 565 -190 1173 -49 1597 371 256 253
424 608 451 952 l7 85 1445 0 1445 0 7 -85 c9 -113 32 -222 75 -350 154 -457
516 -819 973 -973 565 -190 1173 -49 1597 371 271 268 426 611 457 1010 l6 72
-40 0 c-37 0 -40 2 -40 28 0 15 11 70 25 122 31 119 31 154 2 260 -80 286
-205 506 -405 707 -367 371 -906 534 -1417 428 -601 -125 -1085 -607 -1209
-1205 -15 -74 -15 -76 14 -190 31 -125 35 -185 10 -185 -8 0 -28 26 -45 57
l-30 58 -1432 0 c-1327 0 -1433 1 -1441 17 -8 13 -11 8 -17 -24 -8 -53 -29
-83 -46 -66 -9 9 -5 39 19 135 31 123 31 124 16 198 -110 532 -507 979 -1024
1153 -128 43 -237 66 -350 75 l-85 7 0 1445 0 1445 85 7 c163 13 378 72 525
145 471 234 781 655 865 1172 l12 74 -38 79 -38 78 38 78 38 79 -12 74 c-84
517 -394 938 -865 1172 -147 73 -362 132 -525 145 l-85 7 0 1445 0 1445 85 7
c113 9 222 32 350 75 517 174 914 621 1024 1153 15 74 15 75 -16 198 -24 96
-28 126 -19 135 17 17 38 -13 46 -66 6 -32 9 -37 17 -24 8 16 115 17 1452 17
l1443 0 18 40 c12 26 25 40 37 40 24 0 23 -14 -12 -150 -29 -114 -29 -116 -14
-190 110 -532 507 -979 1024 -1153 565 -190 1173 -49 1597 371 213 210 367
493 427 782 15 74 15 76 -14 190 -39 152 -39 150 10 150 l40 0 -6 73 c-12 162
-35 271 -86 422 -152 444 -517 806 -968 958 -567 191 -1184 46 -1602 -376
-256 -258 -419 -605 -446 -947 l-7 -85 -1445 0 -1445 0 -7 85 c-9 113 -32 222
-75 350 -197 583 -721 994 -1338 1050 -114 11 -165 10 -285 -1z m331 -120
c468 -60 884 -351 1097 -766 325 -633 151 -1389 -419 -1817 -506 -381 -1212
-381 -1718 0 -369 277 -581 698 -581 1154 0 713 524 1320 1230 1425 108 16
283 18 391 4z m6000 0 c468 -60 884 -351 1097 -766 325 -633 151 -1389 -419
-1817 -506 -381 -1212 -381 -1718 0 -369 277 -581 698 -581 1154 0 713 524
1320 1230 1425 108 16 283 18 391 4z m-6000 -6000 c468 -60 884 -351 1097
-766 325 -633 151 -1389 -419 -1817 -506 -381 -1212 -381 -1718 0 -369 277
-581 698 -581 1154 0 713 524 1320 1230 1425 108 16 283 18 391 4z m0 -6000
c468 -60 884 -351 1097 -766 325 -633 151 -1389 -419 -1817 -506 -381 -1212
-381 -1718 0 -369 277 -581 698 -581 1154 0 713 524 1320 1230 1425 108 16
283 18 391 4z m6000 0 c468 -60 884 -351 1097 -766 325 -633 151 -1389 -419
-1817 -506 -381 -1212 -381 -1718 0 -369 277 -581 698 -581 1154 0 713 524
1320 1230 1425 108 16 283 18 391 4z"/>
<path d="M31750 16449 c-602 -55 -1129 -473 -1323 -1049 -43 -127 -67 -239
-74 -342 l-6 -78 37 0 c44 0 44 2 6 -150 -35 -138 -35 -146 -14 -248 110 -534
506 -980 1024 -1155 128 -43 237 -66 350 -75 l85 -7 0 -1445 0 -1445 -85 -7
c-163 -13 -378 -72 -525 -145 -471 -234 -781 -655 -865 -1172 l-12 -74 38 -79
38 -78 -38 -78 -38 -79 12 -74 c95 -584 491 -1057 1040 -1242 565 -190 1173
-49 1597 371 236 234 391 538 443 873 11 70 11 78 -9 117 -12 23 -21 44 -21
47 0 3 671 5 1490 5 820 0 1490 -2 1490 -5 0 -3 -9 -24 -21 -47 -20 -39 -20
-47 -9 -117 90 -581 490 -1059 1040 -1244 128 -43 237 -66 350 -75 l85 -7 0
-1445 0 -1445 -85 -7 c-113 -9 -222 -32 -350 -75 -517 -174 -914 -621 -1024
-1153 -15 -73 -14 -78 8 -168 l24 -92 -1508 0 -1508 0 24 92 c22 90 23 95 8
168 -110 532 -507 979 -1024 1153 -332 112 -668 112 -1000 0 -517 -174 -914
-621 -1024 -1153 -15 -74 -15 -76 13 -190 16 -63 29 -132 30 -153 0 -36 0 -37
-37 -37 l-38 0 7 -87 c49 -597 472 -1131 1049 -1326 565 -190 1173 -49 1597
371 256 253 424 608 451 952 l7 85 1445 0 1445 0 7 -85 c27 -344 195 -699 451
-952 373 -369 903 -528 1412 -423 538 112 983 506 1158 1025 190 565 49 1173
-371 1597 -253 256 -608 424 -952 451 l-85 7 0 1445 0 1445 85 7 c342 27 689
190 947 446 371 367 534 906 428 1417 -112 538 -506 983 -1025 1158 -567 191
-1184 46 -1602 -376 -236 -238 -386 -536 -438 -868 -11 -70 -11 -78 9 -117 12
-23 21 -44 21 -47 0 -3 -670 -5 -1490 -5 -819 0 -1490 2 -1490 5 0 3 9 24 21
47 20 39 20 47 9 117 -90 581 -490 1059 -1040 1244 -128 43 -237 66 -350 75
l-85 7 0 1445 0 1445 85 7 c113 9 222 32 350 75 517 174 914 621 1024 1153 15
73 14 78 -8 168 l-24 92 1513 0 1512 0 -25 -105 c-30 -121 -27 -149 35 -335
154 -457 516 -819 973 -973 565 -190 1173 -49 1597 371 371 367 534 906 428
1417 -112 538 -506 983 -1025 1158 -567 191 -1184 46 -1602 -376 -256 -258
-419 -605 -446 -947 l-7 -85 -1445 0 -1445 0 -7 85 c-9 113 -32 222 -75 350
-197 583 -721 994 -1338 1050 -114 11 -165 10 -285 -1z m331 -120 c468 -60
884 -351 1097 -766 325 -633 151 -1389 -419 -1817 -506 -381 -1212 -381 -1718
0 -369 277 -581 698 -581 1154 0 713 524 1320 1230 1425 108 16 283 18 391 4z
m6000 0 c468 -60 884 -351 1097 -766 325 -633 151 -1389 -419 -1817 -506 -381
-1212 -381 -1718 0 -369 277 -581 698 -581 1154 0 713 524 1320 1230 1425 108
16 283 18 391 4z m-6000 -6000 c468 -60 884 -351 1097 -766 325 -633 151
-1389 -419 -1817 -506 -381 -1212 -381 -1718 0 -369 277 -581 698 -581 1154 0
713 524 1320 1230 1425 108 16 283 18 391 4z m6000 0 c468 -60 884 -351 1097
-766 325 -633 151 -1389 -419 -1817 -506 -381 -1212 -381 -1718 0 -369 277
-581 698 -581 1154 0 713 524 1320 1230 1425 108 16 283 18 391 4z m-6000
-6000 c468 -60 884 -351 1097 -766 325 -633 151 -1389 -419 -1817 -506 -381
-1212 -381 -1718 0 -369 277 -581 698 -581 1154 0 713 524 1320 1230 1425 108
16 283 18 391 4z m6000 0 c468 -60 884 -351 1097 -766 325 -633 151 -1389
-419 -1817 -506 -381 -1212 -381 -1718 0 -369 277 -581 698 -581 1154 0 713
524 1320 1230 1425 108 16 283 18 391 4z"/>
<path d="M18340 14894 c0 -8 5 -12 10 -9 6 3 10 10 10 16 0 5 -4 9 -10 9 -5 0
-10 -7 -10 -16z"/>
<path d="M30348 14904 c-5 -4 -8 -21 -7 -38 0 -30 0 -30 10 -7 11 27 8 57 -3
45z"/>
<path d="M27440 14873 c0 -5 5 -15 10 -23 8 -12 10 -11 10 8 0 12 -4 22 -10
22 -5 0 -10 -3 -10 -7z"/>
<path d="M18360 14825 c-6 -8 -10 -22 -8 -32 3 -13 7 -9 15 15 13 35 12 39 -7
17z"/>
<path d="M15444 11909 c-3 -6 -1 -16 5 -22 8 -8 11 -5 11 11 0 24 -5 28 -16
11z"/>
<path d="M9447 8963 c-11 -10 -8 -61 3 -68 6 -4 10 10 10 34 0 42 -2 46 -13
34z"/>
<path d="M30340 8943 c0 -13 5 -23 10 -23 13 0 13 11 0 30 -8 12 -10 11 -10
-7z"/>
<path d="M18340 8906 c0 -9 5 -16 10 -16 6 0 10 4 10 9 0 6 -4 13 -10 16 -5 3
-10 -1 -10 -9z"/>
<path d="M30340 8858 c0 -19 2 -20 10 -8 13 19 13 30 0 30 -5 0 -10 -10 -10
-22z"/>
<path d="M12340 6883 c1 -27 1 -27 15 -9 14 19 12 36 -6 36 -5 0 -9 -12 -9
-27z"/>
<path d="M15436 6901 c-3 -4 1 -17 9 -27 14 -18 14 -18 15 9 0 26 -13 36 -24
18z"/>
<path d="M30347 2976 c-12 -31 -8 -55 12 -66 20 -10 20 -10 -3 74 -1 6 -5 2
-9 -8z"/>
<path d="M27440 2951 c-13 -26 -13 -31 5 -31 9 0 15 9 15 25 0 30 -6 32 -20 6z"/>
<path d="M9436 2934 c-8 -21 -8 -21 9 -28 11 -4 15 1 15 19 0 28 -15 33 -24 9z"/>
<path d="M18340 2920 c0 -19 3 -21 12 -12 9 9 9 15 0 24 -9 9 -12 7 -12 -12z"/>
<path d="M15446 1961 c-4 -7 -5 -15 -2 -18 9 -9 19 4 14 18 -4 11 -6 11 -12 0z"/>
</g>

</svg>

